<svg xmlns="http://www.w3.org/2000/svg" viewBox="0 0 512 512"><title>Artboard 106</title><g id="Recycle_bin-2" data-name="Recycle bin"><path d="M106.66667,170.66667H405.33333a0,0,0,0,1,0,0V448a42.66667,42.66667,0,0,1-42.66667,42.66667H149.33333A42.66667,42.66667,0,0,1,106.66667,448V170.66667A0,0,0,0,1,106.66667,170.66667Z" style="fill:#255125"/><rect x="128" y="170.66667" width="170.66667" height="42.66667" rx="21.33331" ry="21.33331" style="fill:#184218"/><path d="M298.66667,192V448A42.66712,42.66712,0,0,1,256,490.66667H362.66667A42.66711,42.66711,0,0,0,405.33333,448V192Z" style="fill:#0a360a"/><rect x="320" y="170.66667" width="85.33333" height="42.66667" rx="21.33331" ry="21.33331" style="fill:#0d230d"/><rect x="192" y="234.66669" width="42.66667" height="191.99996" rx="21.33331" ry="21.33331" style="fill:#0a360a"/><rect x="277.33333" y="234.66669" width="42.66667" height="191.99996" rx="21.33331" ry="21.33331" style="fill:#002c00"/><rect x="362.66667" y="234.66669" width="42.66667" height="191.99996" rx="21.33331" ry="21.33331" style="fill:#0d230d"/><rect x="106.66667" y="234.66669" width="42.66667" height="191.99996" rx="21.33331" ry="21.33331" style="fill:#0a360a"/><path d="M416,128H405.33333C384,128,384,64,341.33333,64H298.66667a42.66667,42.66667,0,0,0-85.33334,0H170.66667C128,64,128,128,106.66667,128H96a32,32,0,0,0,0,64H416a32,32,0,0,0,0-64Z" style="fill:#215f2a"/><path d="M416,128H405.33333C384,128,384,64,341.33333,64H298.66667a42.66667,42.66667,0,0,0-85.33334,0h21.33334c42.66666,0,42.66666,64,64,64h10.66666a32,32,0,0,1,0,64H416a32,32,0,0,0,0-64Z" style="fill:#1d5125"/><rect x="64" y="128" width="384" height="64" rx="31.99997" ry="31.99997" style="fill:#215f2a"/><path d="M416,128H309.33333a32,32,0,0,1,0,64H416a32,32,0,0,0,0-64Z" style="fill:#255125"/><rect x="362.66667" y="128" width="64" height="42.66667" rx="21.33331" ry="21.33331" style="fill:#215f2a"/><rect x="128" y="85.33333" width="128" height="42.66667" rx="21.33331" ry="21.33331" style="fill:#1d5125"/><rect x="298.66667" y="85.33333" width="85.33333" height="42.66667" rx="21.33331" ry="21.33331" style="fill:#184218"/><rect x="256" y="42.66667" width="42.66667" height="21.33333" rx="10.66666" ry="10.66666" style="fill:#103c10"/><rect x="192" y="256" width="21.33333" height="149.33333" rx="10.66666" ry="10.66666" style="fill:#0d230d"/><rect x="170.66667" y="234.66667" width="21.33333" height="192" rx="10.66666" ry="10.66666" style="fill:#215f2a"/><rect x="256" y="234.66667" width="21.33333" height="192" rx="10.66666" ry="10.66666" style="fill:#215f2a"/><rect x="341.33333" y="234.66667" width="21.33333" height="192" rx="10.66666" ry="10.66666" style="fill:#255125"/><rect x="106.66667" y="256" width="21.33333" height="149.33333" rx="10.66666" ry="10.66666" style="fill:#0d230d"/><rect x="277.33333" y="256" width="21.33333" height="149.33333" rx="10.66666" ry="10.66666" style="fill:#0d230d"/><rect x="128" y="448" width="149.33333" height="42.66667" rx="21.33331" ry="21.33331" style="fill:#184218"/><rect x="85.33333" y="128" width="149.33333" height="42.66667" rx="21.33331" ry="21.33331" style="fill:#3e8348"/></g></svg>